<svg id="Layer_1" data-name="Layer 1" xmlns="http://www.w3.org/2000/svg" width="10mm" height="10mm" viewBox="0 0 28.3465 28.3465"><defs><style>.cls-1{fill:#e6d5c3;}.cls-1,.cls-2{fill-rule:evenodd;}.cls-2{fill:#8b5e3c;}</style></defs><path class="cls-1" d="M19.4773,12.63l4.601-7.2063c.8476-1.4646-2.8308-1.5045-3.8045,0L17.5772,9.6524Z"/><path class="cls-2" d="M19.3834,12.7873l4.6949-7.3638.0185-.04L21.3019,9.53a1.4047,1.4047,0,0,1-2.5495,0l-2.619-4.1062H13.4722l-.3884,1.4786L16.83,12.7873a1.4,1.4,0,0,0,2.553,0Z"/><polygon class="cls-1" points="11.535 12.63 16.133 5.423 12.328 5.423 9.629 9.652 11.535 12.63"/><path class="cls-2" d="M11.4362,12.7873l4.6972-7.3638h-.1586L13.357,9.53a1.398,1.398,0,0,1-2.55,0L9.4216,7.35c-.921-1.4345-1.4657-2.4853-2.4852-2.8042-1.4664-.4585-3.6135-.3595-2.7475.8776l4.6972,7.3638a1.3979,1.3979,0,0,0,2.55,0Z"/><path class="cls-1" d="M19.4773,15.7166l4.601,7.2064c.8476,1.4645-2.8308,1.5045-3.8045,0l-2.6966-4.229Z"/><path class="cls-2" d="M19.3834,15.5592l4.6949,7.3638.0185.04-2.7949-4.1466a1.4047,1.4047,0,0,0-2.5495,0l-2.619,4.1062H13.4722l-.3884-1.4786L16.83,15.5592a1.4,1.4,0,0,1,2.553,0Z"/><polygon class="cls-1" points="11.535 15.717 16.133 22.923 12.328 22.923 9.629 18.694 11.535 15.717"/><path class="cls-2" d="M11.4362,15.5592l4.6972,7.3638h-.1586L13.357,18.8168a1.398,1.398,0,0,0-2.55,0l-1.3854,2.18c-.921,1.4344-1.4657,2.4852-2.4852,2.8041-1.4664.4585-3.6135.36-2.7475-.8775l4.6972-7.3638a1.3979,1.3979,0,0,1,2.55,0Z"/></svg>