<svg id="Capa_1" data-name="Capa 1" xmlns="http://www.w3.org/2000/svg" width="160" height="67" viewBox="0 0 160 67"><defs><style>.cls-1{fill:#e6d5c3;}.cls-1,.cls-2,.cls-3{fill-rule:evenodd;}.cls-2{fill:#5f6f65;}.cls-3{fill:#8b5e3c;}</style></defs><path class="cls-1" d="M43.1978,26.87,55.7,7.2893c2.303-3.9795-7.6919-4.0881-10.3377,0L38.0351,18.78Z"/><path class="cls-2" d="M42.9427,27.2978,55.7,7.2893l.05-.11L48.1556,18.4465c-1.9725,2.9148-5.0209,2.9873-6.9274,0L34.112,7.2893H26.8811l-1.0554,4.0175,10.18,15.991c1.9161,2.9886,5.0177,2.9886,6.9368,0Z"/><polygon class="cls-1" points="21.616 26.87 34.112 7.289 23.773 7.289 16.44 18.78 21.616 26.87"/><path class="cls-2" d="M21.3488,27.2978,34.112,7.2893h-.4311l-7.113,11.1572c-1.9125,2.9873-5.0193,2.9873-6.9287,0l-3.7643-5.9223c-2.5024-3.8977-3.9827-6.7529-6.7528-7.6194C5.1378,3.659-.6963,3.928,1.6567,7.2893L14.42,27.2978c1.9113,2.9886,5.0148,2.9886,6.929,0Z"/><path class="cls-1" d="M58.45,58.1162,70.9521,38.5354c2.303-3.98-7.6919-4.088-10.3377,0L53.2875,50.0261Z"/><path class="cls-3" d="M58.1951,58.544l12.757-20.0086.05-.11L63.408,49.6927c-1.9725,2.9147-5.0209,2.9872-6.9274,0L49.3644,38.5354H42.1335l-1.0554,4.0175,10.18,15.9911c1.9161,2.9885,5.0177,2.9885,6.9368,0Z"/><polygon class="cls-1" points="36.869 58.116 49.364 38.535 39.025 38.535 31.692 50.026 36.869 58.116"/><path class="cls-3" d="M36.6012,58.544,49.3644,38.5354h-.4311L41.82,49.6927c-1.9126,2.9872-5.0193,2.9872-6.9287,0L31.1273,43.77c-2.5024-3.8976-3.9827-6.7528-6.7528-7.6194-3.9843-1.2457-9.8184-.9768-7.4654,2.3845L29.6722,58.544c1.9113,2.9885,5.0148,2.9885,6.929,0Z"/><path d="M75.7837,21.7593a12.4837,12.4837,0,0,1-.6411,4.15,8.1056,8.1056,0,0,1-1.8555,3.0527,7.9562,7.9562,0,0,1-2.9355,1.8726,11.16,11.16,0,0,1-3.9131.6411,10.5077,10.5077,0,0,1-3.7281-.6411,8.138,8.138,0,0,1-2.935-1.8726,8.5162,8.5162,0,0,1-1.9233-3.0527,11.6384,11.6384,0,0,1-.6915-4.15,11.1289,11.1289,0,0,1,1.13-5.2461,7.6268,7.6268,0,0,1,3.2217-3.2559A10.5661,10.5661,0,0,1,66.54,12.144a9.9414,9.9414,0,0,1,4.7739,1.1133,8.0787,8.0787,0,0,1,3.2724,3.2559A10.62,10.62,0,0,1,75.7837,21.7593Zm-12.0781,0a11.5992,11.5992,0,0,0,.27,2.6987,3.1651,3.1651,0,0,0,.894,1.67,2.3661,2.3661,0,0,0,1.6363.5567,2.2419,2.2419,0,0,0,1.6025-.5567,3.3183,3.3183,0,0,0,.86-1.67,11.6344,11.6344,0,0,0,.2695-2.6987,11.2,11.2,0,0,0-.2695-2.6651,3.1175,3.1175,0,0,0-.8775-1.62,2.3489,2.3489,0,0,0-1.6191-.54,2.2255,2.2255,0,0,0-2.1089,1.2143A7.7927,7.7927,0,0,0,63.7056,21.7593Z"/><path d="M90.7285,12.144a9.5618,9.5618,0,0,1,1.1133.0679,7.3611,7.3611,0,0,1,.8437.1348l-.5742,6.0727q-.3369-.0673-.8261-.1352a10.6947,10.6947,0,0,0-1.3653-.0674,7.7089,7.7089,0,0,0-1.2988.1182,3.8146,3.8146,0,0,0-1.3164.4892,2.713,2.713,0,0,0-1.0117,1.1133,4.3948,4.3948,0,0,0-.3887,2.0244v9.1763H79.4609V12.4814H84.252l1.0117,2.9693h.3027a6.8766,6.8766,0,0,1,1.3164-1.67,6.3779,6.3779,0,0,1,1.8047-1.1973A5.0138,5.0138,0,0,1,90.7285,12.144Z"/><path d="M101.7607,15.5854q0,1.1471-.1015,2.53t-.27,2.53h.1348q.27-.405.6074-.9277t.709-1.063q.3707-.5391.6738-.9107l4.1836-5.2632h7.1866L108.4072,20.41l6.8819,10.7285h-7.3545l-4.0821-6.68-2.0918,1.5859v5.0943H95.2832V5.498h6.4775Z"/><path d="M81.3691,43.0322a6.4459,6.4459,0,0,1,4.4629,1.3233,5.4633,5.4633,0,0,1,1.4473,4.2168V59.8057H85.3086l-.5215-2.3389h-.123a9.25,9.25,0,0,1-1.4629,1.4922,4.911,4.911,0,0,1-1.7227.8779,8.6783,8.6783,0,0,1-2.3555.2764,6.5272,6.5272,0,0,1-2.6621-.5235,4.0741,4.0741,0,0,1-1.8618-1.6152,5.145,5.145,0,0,1-.6772-2.7549,4.3485,4.3485,0,0,1,1.9389-3.8008A11.2484,11.2484,0,0,1,81.832,49.957l2.8008-.0918V48.88a3.7391,3.7391,0,0,0-.8926-2.8623,3.6566,3.6566,0,0,0-2.5234-.8,7.8154,7.8154,0,0,0-2.4629.3847,17.7679,17.7679,0,0,0-2.1851.877l-.831-2.0313a12.3762,12.3762,0,0,1,2.5552-1A11.29,11.29,0,0,1,81.3691,43.0322ZM82.17,51.835a8.1988,8.1988,0,0,0-4.2617.9843,2.8282,2.8282,0,0,0-1.1855,2.4317,2.3917,2.3917,0,0,0,.8457,2.0312,3.4754,3.4754,0,0,0,2.17.6465,5.2489,5.2489,0,0,0,3.4785-1.1543A4.3631,4.3631,0,0,0,84.6016,53.22V51.7422Z"/><path d="M100.3281,43.002a6.2512,6.2512,0,0,1,4.4619,1.4306q1.5088,1.4311,1.5088,4.6319V59.8057h-2.6777V49.249a4.33,4.33,0,0,0-.8926-2.9853,3.6063,3.6063,0,0,0-2.8008-.9844q-2.7391,0-3.7851,1.5391A7.8517,7.8517,0,0,0,95.0957,51.25v8.5557h-2.708V43.31h2.1846l.4,2.2461h.1543a5.0744,5.0744,0,0,1,1.3691-1.4307,5.9085,5.9085,0,0,1,1.8008-.8467A7.4667,7.4667,0,0,1,100.3281,43.002Z"/><path d="M117.2549,60.1133a6.1816,6.1816,0,0,1-4.9248-2.1387q-1.8458-2.1387-1.8467-6.3867t1.8623-6.416a6.1833,6.1833,0,0,1,4.94-2.17,7.0091,7.0091,0,0,1,2.247.3232,5.5717,5.5717,0,0,1,1.6621.8769,6.2359,6.2359,0,0,1,1.2,1.23h.1846q-.0307-.3984-.1074-1.1846t-.0772-1.246V36.416h2.708v23.39H122.917l-.3994-2.2159h-.1231a6.17,6.17,0,0,1-1.2,1.2774,5.5645,5.5645,0,0,1-1.6777.9072A6.863,6.863,0,0,1,117.2549,60.1133Zm.4306-2.2461a4.2922,4.2922,0,0,0,3.6778-1.4317,7.2388,7.2388,0,0,0,1.0615-4.3242v-.4922a9.053,9.053,0,0,0-1.0156-4.7246q-1.0152-1.6449-3.7549-1.6465a3.6154,3.6154,0,0,0-3.2773,1.7393,8.6866,8.6866,0,0,0-1.0928,4.6621,8.1889,8.1889,0,0,0,1.0928,4.586A3.7116,3.7116,0,0,0,117.6855,57.8672Z"/><path d="M136.7051,43.002a6.9084,6.9084,0,0,1,3.6474.9228,6.0624,6.0624,0,0,1,2.3389,2.6006,8.8774,8.8774,0,0,1,.8154,3.9238v1.6319H132.2119a6.225,6.225,0,0,0,1.4317,4.2627,4.9908,4.9908,0,0,0,3.831,1.4619,11.9425,11.9425,0,0,0,2.7852-.293,15.5642,15.5642,0,0,0,2.5088-.8467v2.37a12.845,12.845,0,0,1-2.4932.8155,14.2126,14.2126,0,0,1-2.9238.2617,8.703,8.703,0,0,1-4.14-.9541,6.6353,6.6353,0,0,1-2.8-2.8467,9.811,9.811,0,0,1-1.001-4.6318,10.8842,10.8842,0,0,1,.9082-4.6475,6.91,6.91,0,0,1,2.5547-2.9853A6.9887,6.9887,0,0,1,136.7051,43.002Zm-.03,2.2158a3.9144,3.9144,0,0,0-3.0625,1.2461,5.8756,5.8756,0,0,0-1.3389,3.4629h8.4024a6.4473,6.4473,0,0,0-.4307-2.4629,3.6118,3.6118,0,0,0-1.3086-1.6465A3.9284,3.9284,0,0,0,136.6748,45.2178Z"/><path d="M155.3867,43.002c.3076,0,.6406.0146,1,.0459a6.7373,6.7373,0,0,1,.9385.1386l-.3389,2.4932a8.761,8.761,0,0,0-.8769-.1543,7.1191,7.1191,0,0,0-.9073-.0615,4.2635,4.2635,0,0,0-1.8164.4,4.9634,4.9634,0,0,0-1.539,1.123,5.2166,5.2166,0,0,0-1.0615,1.7393,6.3749,6.3749,0,0,0-.3848,2.2773v8.8018h-2.708V43.31h2.2158l.3076,3.0156h.1231a8.09,8.09,0,0,1,1.2617-1.6768,5.7538,5.7538,0,0,1,1.6933-1.2A4.8709,4.8709,0,0,1,155.3867,43.002Z"/></svg>
