<svg id="Layer_1" data-name="Layer 1" xmlns="http://www.w3.org/2000/svg" width="42.3333mm" height="17.6389mm" viewBox="0 0 120 50"><defs><style>.cls-1{fill:#e6d5c3;}.cls-1,.cls-2{fill-rule:evenodd;}.cls-2{fill:#8b5e3c;}</style></defs><path class="cls-1" d="M35.3772,21.9407,44.1788,8.1554c1.6213-2.8016-5.4153-2.8781-7.278,0l-5.1583,8.09Z"/><path class="cls-2" d="M35.1975,22.2419,44.1788,8.1554l.0353-.0773L38.8676,16.01c-1.3887,2.0521-3.5349,2.1031-4.8771,0l-5.01-7.8549H23.89l-.743,2.8284,7.1671,11.2581c1.349,2.104,3.5326,2.104,4.8836,0Z"/><polygon class="cls-1" points="20.183 21.941 28.981 8.155 21.702 8.155 16.539 16.245 20.183 21.941"/><path class="cls-2" d="M19.995,22.2419,28.9806,8.1554h-.3035L23.6694,16.01c-1.3465,2.1031-3.5338,2.1031-4.878,0l-2.65-4.1694c-1.7618-2.744-2.8039-4.7542-4.7542-5.3642C8.5821,5.6,4.4748,5.789,6.1313,8.1554l8.9855,14.0865c1.3456,2.104,3.5306,2.104,4.8782,0Z"/><path class="cls-1" d="M51.1474,40.01l8.8015-13.7853c1.6214-2.8016-5.4152-2.8781-7.2779,0l-5.1583,8.09Z"/><path class="cls-2" d="M50.9677,40.3116l8.9812-14.0865.0354-.0773L54.6378,34.08c-1.3887,2.052-3.5349,2.1031-4.8771,0l-5.01-7.855H39.66l-.743,2.8284,7.1671,11.2581c1.349,2.104,3.5326,2.104,4.8836,0Z"/><polygon class="cls-1" points="35.953 40.01 44.751 26.225 37.472 26.225 32.309 34.315 35.953 40.01"/><path class="cls-2" d="M35.7652,40.3116l8.9855-14.0865h-.3034L39.44,34.08c-1.3465,2.1031-3.5338,2.1031-4.878,0l-2.65-4.17c-1.7618-2.744-2.8039-4.7542-4.7542-5.3642-2.805-.8771-6.9123-.6877-5.2558,1.6787L30.887,40.3116c1.3456,2.104,3.5306,2.104,4.8782,0Z"/><path d="M59.7946,17.217a8.7746,8.7746,0,0,1-.4512,2.9214,5.7154,5.7154,0,0,1-1.3061,2.15,5.6033,5.6033,0,0,1-2.0664,1.3179,7.8576,7.8576,0,0,1-2.7554.4512,7.3957,7.3957,0,0,1-2.6245-.4512,5.7252,5.7252,0,0,1-2.0664-1.3179,6.0005,6.0005,0,0,1-1.354-2.15,8.1866,8.1866,0,0,1-.4868-2.9214,7.8343,7.8343,0,0,1,.7959-3.6933,5.3689,5.3689,0,0,1,2.268-2.292,7.4408,7.4408,0,0,1,3.5391-.7837,6.9983,6.9983,0,0,1,3.3608.7837,5.6815,5.6815,0,0,1,2.3037,2.292A7.4728,7.4728,0,0,1,59.7946,17.217Zm-8.5029,0a8.1707,8.1707,0,0,0,.19,1.9,2.2287,2.2287,0,0,0,.6294,1.1753,1.6637,1.6637,0,0,0,1.1519.3921,1.577,1.577,0,0,0,1.1284-.3921,2.3328,2.3328,0,0,0,.6055-1.1753,8.198,8.198,0,0,0,.19-1.9,7.8916,7.8916,0,0,0-.19-1.8764,2.1956,2.1956,0,0,0-.6177-1.14,1.6541,1.6541,0,0,0-1.14-.38,1.5672,1.5672,0,0,0-1.4848.8549A5.4894,5.4894,0,0,0,51.2917,17.217Z"/><path d="M70.3161,10.448a6.8014,6.8014,0,0,1,.7842.0474,5.1744,5.1744,0,0,1,.5937.0952L71.29,14.8655q-.238-.047-.582-.0947a7.4553,7.4553,0,0,0-.9619-.0474,5.4668,5.4668,0,0,0-.9146.083,2.6962,2.6962,0,0,0-.9263.3442,1.9125,1.9125,0,0,0-.7124.7837A3.1058,3.1058,0,0,0,66.92,17.36V23.82H62.383V10.6853h3.373l.7124,2.09h.2139A4.8108,4.8108,0,0,1,67.6086,11.6a4.4941,4.4941,0,0,1,1.27-.8433A3.5349,3.5349,0,0,1,70.3161,10.448Z"/><path d="M78.0832,12.87q0,.8077-.0713,1.7817t-.19,1.7812h.0947q.19-.2848.4277-.6533t.499-.748q.2609-.3794.4746-.6411l2.9454-3.7056h5.059l-4.56,5.5815L87.6076,23.82H82.43l-2.8741-4.7027-1.4726,1.1162V23.82H73.5226V5.7688h4.5606Z"/><path d="M71.3508,36.1721a8.9608,8.9608,0,0,1-.2925,2.34,5.3166,5.3166,0,0,1-.91,1.8847,4.3242,4.3242,0,0,1-1.5493,1.2569,4.9827,4.9827,0,0,1-2.21.455,4.9134,4.9134,0,0,1-2.1557-.4443,4.2264,4.2264,0,0,1-1.5386-1.2461,5.4615,5.4615,0,0,1-.9209-1.8848,8.7425,8.7425,0,0,1-.3032-2.3613,7.6724,7.6724,0,0,1,.5957-3.1533A4.6006,4.6006,0,0,1,63.8,30.9607a4.95,4.95,0,0,1,2.7192-.7261,4.5652,4.5652,0,0,1,2.7954.791,4.5107,4.5107,0,0,1,1.5494,2.1338A8.7986,8.7986,0,0,1,71.3508,36.1721Zm-9.2955,0a7.6938,7.6938,0,0,0,.4766,2.8057,3.8473,3.8473,0,0,0,3.8569,2.5889,4.1443,4.1443,0,0,0,2.481-.6934,4.0835,4.0835,0,0,0,1.43-1.917,7.79,7.79,0,0,0,.4658-2.7842,8.3062,8.3062,0,0,0-.4224-2.72,4.1046,4.1046,0,0,0-1.3545-1.95,3.9091,3.9091,0,0,0-2.47-.7256,4.01,4.01,0,0,0-3.3042,1.43A6.1311,6.1311,0,0,0,62.0553,36.1721Z"/><path d="M79.3459,30.2346a3.899,3.899,0,0,1,2.8818,1.0186,4.2832,4.2832,0,0,1,1.0181,3.1416v7.497h-.563V34.4163a3.7667,3.7667,0,0,0-.8779-2.7725,3.3478,3.3478,0,0,0-2.459-.8672,4.1742,4.1742,0,0,0-3.0225,1.1162,4.6,4.6,0,0,0-1.16,3.4551v6.5439h-.5629v-11.44h.455l.0865,2.4053h.0434a4.3975,4.3975,0,0,1,.7691-1.2676,3.7987,3.7987,0,0,1,1.3432-.9751A4.9436,4.9436,0,0,1,79.3459,30.2346Z"/><path d="M91.1979,42.1086a4.4291,4.4291,0,0,1-3.6616-1.4736,6.6078,6.6078,0,0,1-1.1919-4.2471,7.0454,7.0454,0,0,1,1.3-4.5605,4.5352,4.5352,0,0,1,3.7266-1.5928,4.249,4.249,0,0,1,1.809.3579,3.6457,3.6457,0,0,1,1.2784.9644,3.9415,3.9415,0,0,1,.7475,1.3642H95.25q-.0221-.7353-.0322-1.43-.0119-.693-.0113-1.3648V25.4246H95.77V41.8918h-.4766L95.25,39.4436h-.0435a4.3653,4.3653,0,0,1-.769,1.3213,3.7139,3.7139,0,0,1-1.3.9756A4.5866,4.5866,0,0,1,91.1979,42.1086Zm0-.5419a3.398,3.398,0,0,0,3.0874-1.419,7.2282,7.2282,0,0,0,.9209-3.9541v-.0654a6.9531,6.9531,0,0,0-.9531-3.9756,3.27,3.27,0,0,0-2.8818-1.376,4.0191,4.0191,0,0,0-3.2935,1.3975,6.5352,6.5352,0,0,0-1.1484,4.2138,6.0674,6.0674,0,0,0,1.0508,3.89A3.9079,3.9079,0,0,0,91.1979,41.5667Z"/><path d="M103.9167,30.2346A3.7452,3.7452,0,0,1,106.3,30.95a4.1729,4.1729,0,0,1,1.3437,1.9174,8.0043,8.0043,0,0,1,.4336,2.7188v.542H99.5612a6.067,6.067,0,0,0,1.1484,4.03,4.1691,4.1691,0,0,0,3.4019,1.4083,9.091,9.091,0,0,0,1.7876-.1514,8.309,8.309,0,0,0,1.7446-.6065v.585a8.1037,8.1037,0,0,1-1.6582.541,9.1977,9.1977,0,0,1-1.874.1738,5.1941,5.1941,0,0,1-2.936-.7587,4.4029,4.4029,0,0,1-1.6685-2.08,7.96,7.96,0,0,1-.5308-2.99,8.1209,8.1209,0,0,1,.5416-3,5.0307,5.0307,0,0,1,1.6362-2.21A4.4238,4.4238,0,0,1,103.9167,30.2346Zm0,.542a3.92,3.92,0,0,0-2.98,1.2246,5.7465,5.7465,0,0,0-1.354,3.585h7.9082a7.0634,7.0634,0,0,0-.3682-2.5127,3.5745,3.5745,0,0,0-1.1919-1.69A3.2439,3.2439,0,0,0,103.9167,30.7766Z"/><path d="M115.4211,30.2781a6.2728,6.2728,0,0,1,.9433.0649,7.1532,7.1532,0,0,1,.8125.1734l-.1308.52a7.4732,7.4732,0,0,0-.77-.1626,5.8625,5.8625,0,0,0-.8554-.0542,3.4455,3.4455,0,0,0-1.5586.3252,2.925,2.925,0,0,0-1.084.9316,4.18,4.18,0,0,0-.64,1.4629,8.2445,8.2445,0,0,0-.205,1.917v6.4355H111.37v-11.44h.5195l.044,2.1885h.0429a3.4787,3.4787,0,0,1,.6709-1.2026,3.2434,3.2434,0,0,1,1.16-.8448A3.923,3.923,0,0,1,115.4211,30.2781Z"/></svg>