<svg id="Capa_1" data-name="Capa 1" xmlns="http://www.w3.org/2000/svg" width="36" height="36" viewBox="0 0 36 36"><defs><style>.cls-1{fill:#e6d5c3;}.cls-1,.cls-2,.cls-3{fill-rule:evenodd;}.cls-2{fill:#8b5e3c;}.cls-3{fill:#5f6f65;}</style></defs><path class="cls-1" d="M10.202,20.2691,3.4375,30.8639c-1.2462,2.1532,4.1619,2.212,5.5935,0l3.9644-6.2174Z"/><path class="cls-2" d="M10.34,20.0377,3.4375,30.8639l-.0272.0594,4.1091-6.0964c1.0673-1.5771,2.7167-1.6163,3.7483,0l3.85,6.037h3.9125l.5711-2.1738-5.5083-8.6524a2.0584,2.0584,0,0,0-3.7534,0Z"/><polygon class="cls-1" points="21.879 20.269 15.118 30.864 20.712 30.864 24.68 24.647 21.879 20.269"/><path class="cls-2" d="M22.024,20.0377,15.1181,30.8639h.2333L19.2,24.8269a2.0554,2.0554,0,0,1,3.749,0l2.0368,3.2045c1.354,2.1089,2.1549,3.6538,3.6538,4.1227,2.1558.6741,5.3125.5285,4.0394-1.29L25.7732,20.0377a2.0551,2.0551,0,0,0-3.7492,0Z"/><path class="cls-1" d="M10.202,15.7309,3.4375,5.1361c-1.2462-2.1532,4.1619-2.212,5.5935,0l3.9644,6.2174Z"/><path class="cls-3" d="M10.34,15.9623,3.4375,5.1361,3.41,5.0767l4.1091,6.0964c1.0673,1.5771,2.7167,1.6163,3.7483,0l3.85-6.037h3.9125L19.6017,7.31l-5.5083,8.6524a2.0584,2.0584,0,0,1-3.7534,0Z"/><polygon class="cls-1" points="21.879 15.731 15.118 5.136 20.712 5.136 24.68 11.353 21.879 15.731"/><path class="cls-3" d="M22.024,15.9623,15.1181,5.1361h.2333L19.2,11.1731a2.0554,2.0554,0,0,0,3.749,0l2.0368-3.2045C26.34,5.86,27.1408,4.3148,28.64,3.8459c2.1558-.6741,5.3125-.5285,4.0394,1.29L25.7732,15.9623a2.0551,2.0551,0,0,1-3.7492,0Z"/></svg>
